<!-- icon666.com - MILLIONS OF FREE VECTOR ICONS -->
<svg id="Capa_1" width="32" height="32" viewBox="0 0 512.014 512.014" xmlns="http://www.w3.org/2000/svg"><g><path d="m212.01 165.007c0 57.897 47.103 105 105 105 58.01 0 105-47.241 105-105 0-57.897-47.103-105-105-105-57.993 0-105 47.224-105 105zm105-75c41.355 0 75 33.645 75 75 0 5.136-.521 10.152-1.509 15h-73.491c-8.284 0-15 6.716-15 15s6.716 15 15 15h59.959c-13.697 18.204-35.475 30-59.959 30-41.355 0-75-33.645-75-75 0-5.136.521-10.152 1.509-15h43.49c8.284 0 15-6.716 15-15s-6.716-15-15-15h-29.958c13.697-18.204 35.475-30 59.959-30z"/><path d="m511.24 402.263c-2.62-7.859-11.114-12.107-18.974-9.487l-20.322 6.774c-12.982-22.418-37.218-37.543-64.935-37.543-41.355 0-75 33.645-75 75 0 3.048.204 6.048.559 9.002l-20.302 6.768c-7.859 2.62-12.106 11.115-9.487 18.974 2.625 7.874 11.129 12.102 18.974 9.487l20.322-6.774c12.982 22.418 37.218 37.543 64.935 37.543 41.355 0 75-33.645 75-75 0-3.048-.204-6.048-.559-9.002l20.302-6.768c7.859-2.62 12.106-11.115 9.487-18.974zm-104.23-10.256c14.4 0 27.233 6.807 35.475 17.363l-80.454 26.818c.439-24.435 20.439-44.181 44.979-44.181zm0 90c-14.4 0-27.233-6.807-35.475-17.363l80.454-26.818c-.44 24.435-20.44 44.181-44.979 44.181z"/><circle cx="347.01" cy="135.007" r="15"/><circle cx="497.01" cy="315.007" r="15"/><path d="m75.01 60.007h15v15c0 8.284 6.716 15 15 15s15-6.716 15-15v-15h15c8.284 0 15-6.716 15-15s-6.716-15-15-15h-15v-15c0-8.284-6.716-15-15-15s-15 6.716-15 15v15h-15c-8.284 0-15 6.716-15 15s6.716 15 15 15z"/><path d="m211.483 291.747c28.625 23.874 65.426 38.26 105.527 38.26 90.981 0 165-74.019 165-165s-74.019-165-165-165-165 74.019-165 165c0 40.102 14.386 76.902 38.26 105.527l-33.853 33.854c-16.386-7.847-37.109-5.314-51.224 8.802l-92 92c-17.589 17.588-17.592 46.044 0 63.635 17.588 17.589 46.044 17.592 63.635 0l92-92c14.109-14.108 16.652-34.83 8.802-51.224zm105.527-261.74c74.439 0 135 60.561 135 135s-60.561 135-135 135-135-60.561-135-135 60.561-135 135-135zm-169.395 325.604-92 92c-5.866 5.865-15.343 5.865-21.209 0-5.847-5.847-5.847-15.361 0-21.209l92-92c5.848-5.847 15.361-5.847 21.209 0 5.847 5.848 5.847 15.362 0 21.209z"/><circle cx="467.01" cy="15.007" r="15"/><path d="m45.01 210.007c24.813 0 45-20.187 45-45s-20.187-45-45-45-45 20.187-45 45 20.187 45 45 45zm0-60c8.271 0 15 6.729 15 15s-6.729 15-15 15-15-6.729-15-15 6.729-15 15-15z"/></g></svg>
